# xmcd
#
# Track frame offsets:
#  187
#  13055
#  25750
#  42937
#  59732
#  78415
#  96760
#  112557
#  131290
#  149545
#
# Disc length: 2264 seconds
#
# Revision: 4
# Processed by: cddbd v1.5.1PL2 Copyright (c) Steve Scherf et al.
# Submitted via: Collectorz.com_Music_Collector 6.9
#
DISCID=7b08d60a
DTITLE=Restless Heart - Big Iron Horses
DYEAR=2005
DGENRE=Country
TTITLE0=Mending Fences
TTITLE1=We Got The Love
TTITLE2=As Far As I Can Tell
TTITLE3=When She Cries
TTITLE4=Meet Me On The Other Side
TTITLE5=We're Gonna Be OK
TTITLE6=Blame It On Love
TTITLE7=Born In A High WInd
TTITLE8=Just In Time
TTITLE9=Big Iron Horses
EXTD=
EXTT0=
EXTT1=
EXTT2=
EXTT3=
EXTT4=
EXTT5=
EXTT6=
EXTT7=
EXTT8=
EXTT9=
PLAYORDER=
